<?xml version="1.0" encoding="utf-8"?>
<!-- Generator: Adobe Illustrator 24.0.2, SVG Export Plug-In . SVG Version: 6.00 Build 0)  -->
<svg version="1.1" id="Layer_1" xmlns="http://www.w3.org/2000/svg" xmlns:xlink="http://www.w3.org/1999/xlink" x="0px" y="0px"
	 viewBox="0 0 96 96" style="enable-background:new 0 0 96 96;" xml:space="preserve">
<style type="text/css">
	.st0{fill:#0455BF;}
</style>
<path class="st0" d="M81.1,36c-0.1-0.2-0.1-0.4-0.2-0.6c0-0.2-0.1-0.4-0.2-0.7l-1.5-4.5c-0.5-1.4-0.8-2.4-1.1-3
	c-0.3-0.5-1-1.1-2-1.7c-1-0.5-2.6-1-4.8-1.3c-1.3-0.2-2.8-0.3-4.6-0.4c1.1-1.5,1.9-2.7,2.4-3.5c0.6-1,0.9-2.1,0.9-3.4
	c0-0.1-0.1-0.3-0.1-0.5c-0.1-0.2-0.1-0.4-0.2-0.6c0-0.2-0.1-0.4-0.2-0.7L68,10.6c-0.5-1.4-0.8-2.4-1.1-3c-0.3-0.5-1-1.2-2-1.7
	c-1-0.5-2.6-1-4.8-1.3c-2.2-0.3-5.1-0.5-8.9-0.5c-5.1,0-11.6,0.7-19.4,2c-4.6,0.7-8.3,1.8-10.9,3.1c-2.6,1.3-4.6,3-5.9,5.1
	c-1.3,2.1-2.3,4.9-2.9,8.3c-0.3,1.8-0.5,3-0.5,3.6c0,0.9,0.1,1.5,0.4,1.9c0.3,0.4,0.9,0.7,1.7,0.8c0.8,0.1,2.1,0.2,4,0.2
	c2.3,0,4.3,0,6,0s2.5-0.2,2.5-0.5c0-0.7-1.9-1.3-5.7-1.8c-0.5-0.1-1-0.2-1.4-0.2c-0.4-0.1-0.6-0.1-0.8-0.2c-0.1-0.1-0.2-0.3-0.2-0.5
	c0-0.6,2.1-1.6,6.2-2.9c4.1-1.3,9-2.5,14.5-3.5S49.4,18,53.9,18c3.9,0,7.3,0.2,10.2,0.6c-1.4,1.7-2.7,3.5-4,5.1
	c-4.7,0.2-10.4,0.8-17.1,2c-4.6,0.7-8.3,1.8-10.9,3.1c-2.6,1.3-4.6,3-5.9,5.1c-1.3,2.1-2.3,4.9-2.9,8.3c-0.3,1.8-0.5,3-0.5,3.6
	c0,0.9,0.1,1.5,0.4,1.9c0.3,0.4,0.9,0.7,1.7,0.8c0.8,0.1,2.1,0.2,4,0.2c2.3,0,4.3,0,6,0c1.7,0,2.5-0.2,2.5-0.5
	c0-0.7-1.9-1.3-5.7-1.8c-0.5-0.1-1-0.2-1.4-0.2c-0.4-0.1-0.6-0.1-0.8-0.2c-0.1-0.1-0.2-0.3-0.2-0.5c0-0.6,2.1-1.6,6.2-2.9
	c3.8-1.2,8.2-2.3,13.2-3.3c-3.1,4.5-5.8,8.6-7.9,12.4c-2.6,4.5-4.5,8.2-5.8,11.3c-1.3,3-1.9,5.4-1.9,7.2c0,1.2,0.3,2.2,1,2.9
	c0.6,0.7,1.4,1.1,2.3,1.1c2.2,0,4.5-2.1,6.9-6.4c0.3-0.5,0.7-1.2,1.3-2.2c0.5-1,1-1.8,1.4-2.5c0.4-0.7,0.8-1.5,1.2-2.4l-1.6-1.2
	C48,54.5,52,47.3,57.5,38c2.7-0.3,5.2-0.4,7.6-0.4c3.9,0,7.3,0.2,10.2,0.6c-5,6.3-9.4,12.2-13.4,17.9S54.6,66.8,52,71.3
	s-4.5,8.2-5.8,11.3c-1.3,3-1.9,5.4-1.9,7.2c0,1.2,0.3,2.2,1,2.9c0.6,0.7,1.4,1.1,2.3,1.1c2.2,0,4.5-2.1,6.9-6.4
	c0.3-0.5,0.7-1.2,1.3-2.2c0.5-1,1-1.8,1.4-2.5c0.4-0.7,0.8-1.5,1.2-2.4l-1.6-1.2c3.1-6.5,8.8-16.6,17.1-30c0.7-1.1,1.8-2.7,3.3-4.7
	s2.5-3.5,3.1-4.5c0.6-1,0.9-2.1,0.9-3.4C81.2,36.4,81.1,36.2,81.1,36z"/>
</svg>
